<svg width="400" height="554" viewBox="0 0 400 554" fill="none" xmlns="http://www.w3.org/2000/svg">
<path fill-rule="evenodd" clip-rule="evenodd" d="M145.961 286.85C134.415 284.7 127.36 284.289 110.814 271.228C109.304 270.036 93.2591 251.412 83.6802 234.067C72.3053 213.47 67.2968 207.96 72.5461 206.35C81.887 203.485 116.454 254.914 138.954 259.863C147.509 261.745 155.812 258.811 155.837 257.879C155.868 256.698 124.398 226.384 125.52 218.706C125.804 216.759 126.619 215.102 126.649 214.993C126.948 213.909 128.912 211.505 129.614 211.788C131.833 212.681 142.811 225.356 165.51 235.187C181.056 241.92 189.423 245.166 196.527 263.898C197.282 265.889 197.78 265.585 239.269 298.998C267.996 322.133 268.751 321.089 297.123 344.683C300.655 347.621 313.178 360.019 314.713 361.877C332.607 383.545 337.335 396.704 342.252 410.917C345.395 425.402 345.686 425.425 344.702 440.788C343.814 447.449 343.797 447.414 342.167 453.908C337.405 470.739 333.805 479.833 322.628 498.654L322.093 497.944C319.946 492.265 305.178 488.336 308.707 476.154C312.229 463.998 331.261 467.358 328.414 479.451C326.766 486.453 319.441 485.029 318.559 484.857C316.8 484.515 316.767 486.174 318.507 486.663C326.859 489.01 335.275 479.349 327.558 469.855C321.429 462.314 305.617 467.364 305.659 479.432C305.667 481.698 307.016 485.121 305.5 485.14C303.011 485.17 295.775 478.279 275.551 482.166C271.84 482.879 274.224 477.259 260.518 462.903C258.177 460.452 253.139 457.002 248.876 445.684C248.12 443.675 248.206 443.548 247.903 443.507C247.784 443.491 247.797 443.541 246.473 443.96C248.317 439.053 251.794 430.305 248.125 412.523L249.121 412.477C249.244 412.457 249.392 413.059 249.783 412.367C250.44 411.204 250.254 410.215 254.383 404.356C268.675 384.076 306.237 380.632 318.447 409.806C329.729 436.765 299.893 462.909 276.99 445.384C260.854 433.036 269.162 405.213 290.238 407.672C308.511 409.804 309.241 436.042 291.877 437.302C281.813 438.033 274.553 423.475 285.422 418.049C287.892 416.816 292.949 417.853 290.989 416.126C287.887 413.39 274.256 419.41 278.468 431.469C283.112 444.765 310.108 444.106 307.172 419.003C306.006 409.034 286.738 395.65 270.772 410.968C258.697 422.553 261.195 451.035 288.024 456.274C303.812 459.357 330.916 446.487 326.62 415.213C323.474 392.31 294.162 368.169 259.109 388.854C256.172 390.587 260.232 383.783 254.614 376.755C248.265 368.813 236.265 372.627 236.142 375.46C236.11 376.189 236.016 376.142 235.354 376.508C231.985 368.725 217.165 343.815 205.063 330.511C197.501 322.198 170.143 294.295 156.262 289.642C155.452 289.37 151.625 288.087 145.96 286.85H145.961Z" fill="#62421F" fill-opacity="0.99"/>
<path fill-rule="evenodd" clip-rule="evenodd" d="M153.655 417.919C153.519 422.568 153.503 422.532 153.639 427.167C155.457 441.913 157.444 448.824 167.242 459.806C166.87 459.777 166.498 459.749 166.127 459.721C164.094 460.421 154.058 471.598 150.291 487.037C148.209 495.569 149.762 498.095 143.763 506.616C130.642 525.252 99.9421 524.287 91.7604 500.593C85.8459 483.466 103.611 462.368 123.038 472.509C136.82 479.703 134.878 501.671 119.853 504.46C106.107 507.011 96.7276 489.808 109.655 481.857C117.222 477.203 128.653 487.783 120.775 495.044C118.613 497.037 120.214 497.301 120.393 497.273C126.948 496.239 128.362 478.708 113.872 478.677C99.9234 478.647 95.6833 500.993 112.179 506.801C127.459 512.181 146.613 492.31 130.497 473.123C115.962 455.816 77.3355 469.581 88.2446 504.483C90.8409 512.79 92.4394 512.097 92.3959 512.842C92.3922 512.906 92.1139 512.649 91.8566 513.431C91.7813 513.66 92.1891 513.471 92.1131 513.702C57.9843 481.254 57.038 447.549 56.7513 442.409C56.5897 437.491 56.5901 437.519 56.7727 432.619C56.9943 429.323 56.9419 429.369 57.3234 426.091C60.7425 402.73 67.2198 373.416 123.611 330.201C141.48 316.507 140.955 315.89 158.857 302.269C161.859 299.985 162.082 301.803 164.82 304.369C167.246 306.643 194.328 332.023 194.911 333.031C196.015 334.939 192.166 335.118 175.087 362.004C156.589 391.126 154.177 413.157 153.655 417.919Z" fill="#5A3B1F"/>
<path fill-rule="evenodd" clip-rule="evenodd" d="M267.4 285.185C266.304 285.294 257.859 286.139 253.83 287.456C247.532 289.515 247.326 289.025 241.764 292.645C240.933 293.186 239.153 291.355 238.977 291.174C220.325 271.993 206.734 266.31 205.8 264.44C205.009 262.857 218.162 248.854 218.892 248.027C230.117 235.308 237.357 235.995 253.15 226.692C271.999 215.59 274.299 209.857 276.087 215.412C279.524 226.093 252.223 252.196 248.885 255.698C246.698 257.993 244.884 259.333 247.831 259.852C266.029 263.06 270.725 258.146 274.854 255.462C294.949 242.4 319.381 207.112 329.47 208.155C331.284 208.343 333.786 210.279 322.091 229.729C310.522 248.972 299.257 267.985 281.938 278.872C273.019 284.479 272.871 284.303 267.4 285.185L267.4 285.185Z" fill="#725320" fill-opacity="0.99"/>
<path fill-rule="evenodd" clip-rule="evenodd" d="M173.955 465.57C181.047 470.969 190.505 473.089 191.216 473.278L194.46 473.869C197.209 474.168 197.175 474.151 199.895 474.426L199.342 475.345C198.498 475.378 195.981 475.477 189.712 479.678C170.984 492.227 173.076 522.119 196.597 527.438C216.58 531.956 230.807 505.878 213.986 494.218C201.967 485.887 190.287 498.692 191.962 502.734C193.403 506.214 192.154 498.96 199.824 495.084C210.746 489.565 225.837 506.373 212.708 519.459C197.934 534.185 168.239 511.959 187.055 488.352C199.777 472.39 232.187 479.947 234.686 507.204C236.929 531.672 207.418 555.773 177.712 538.004C159.68 527.218 144.584 494.359 173.955 465.571L173.955 465.57Z" fill="#50301E"/>
<path fill-rule="evenodd" clip-rule="evenodd" d="M167.248 459.811C170.672 462.626 170.528 462.748 173.953 465.569C144.582 494.357 159.677 527.216 177.71 538.003C207.416 555.772 236.927 531.67 234.684 507.202C232.185 479.946 199.774 472.389 187.052 488.35C168.237 511.957 197.932 534.183 212.706 519.457C225.835 506.371 210.744 489.563 199.822 495.082C192.152 498.958 193.401 506.212 191.959 502.732C190.285 498.69 201.965 485.885 213.983 494.216C230.804 505.877 216.578 531.955 196.594 527.436C173.073 522.117 170.982 492.226 189.71 479.676C195.978 475.475 198.495 475.377 199.34 475.343L199.892 474.424C204.79 474.477 204.718 474.168 209.654 473.82C210.026 474.064 210.399 474.307 210.771 474.551L211.316 474.566L211.86 474.543C213.679 474.177 213.566 474.89 218.473 476.457C232.71 481.003 245.129 498.799 240.887 515.937C240.837 516.136 240.863 516.126 240.569 518.484C238.808 526.814 237.396 529.642 232.231 536.236C222.894 548.154 209.81 550.567 207.548 550.984C206.805 551.121 206.073 551.315 205.327 551.434C204.787 551.52 204.201 551.39 203.694 551.597C203.414 551.711 203.429 552.208 203.15 552.322C198.305 552.32 195.174 552.417 190.617 552.08C190.231 551.677 191.028 551.496 190.629 551.08C190.567 551.014 190.588 551.037 189.508 550.921C187.526 550.708 187.383 551.4 185.685 550.386C185.378 550.203 182.674 549.347 179.274 547.849C161.789 540.144 152.546 524.743 150.084 512.699C149.457 509.627 147.153 513.795 143.058 517.276C140.636 519.334 133.538 523.487 131.804 523.952C120.024 527.106 113.634 525.359 113.306 525.299C107.157 524.186 107.267 523.757 106.733 523.665C105.41 523.439 104.091 522.388 104.074 522.395C103.787 522.512 103.738 522.97 103.451 523.088C98.7588 519.936 92.9775 514.512 92.1191 513.707C92.1952 513.476 91.7874 513.665 91.8626 513.436C92.1198 512.654 92.3981 512.912 92.4019 512.848C92.4455 512.102 90.8469 512.795 88.2506 504.489C77.3415 469.586 115.968 455.822 130.503 473.128C146.619 492.316 127.466 512.186 112.185 506.806C95.6893 500.998 99.9294 478.652 113.878 478.682C128.368 478.714 126.954 496.245 120.399 497.279C120.22 497.307 118.619 497.042 120.781 495.05C128.659 487.789 117.228 477.208 109.661 481.862C96.7336 489.813 106.113 507.017 119.859 504.465C134.884 501.676 136.826 479.708 123.044 472.514C103.617 462.374 85.852 483.471 91.7665 500.599C99.9482 524.292 130.648 525.257 143.769 506.621C149.768 498.1 148.215 495.575 150.297 487.043C154.064 471.603 164.1 460.426 166.133 459.727C166.505 459.755 166.876 459.783 167.248 459.811L167.248 459.811Z" fill="#7B5F4D"/>
<path fill-rule="evenodd" clip-rule="evenodd" d="M206.822 76.1347C206.981 76.5043 207.14 76.8742 207.299 77.2439C221.045 105.972 240.435 124.76 229.687 147.844C223.828 160.426 206.492 172.325 206.402 172.295C204.637 171.702 206.604 169.841 206.925 169.126C213.041 155.48 205.924 140.648 203.836 135.328C199.55 124.408 202.987 118.852 202.432 118.051C201.11 116.143 199.179 123.534 198.801 126.134C195.712 147.42 204.318 151.511 196.424 167.412C194.797 170.688 192.917 167.173 190.538 164.311C170.955 140.754 174.244 125.107 174.27 124.497C174.433 123.948 174.597 123.399 174.76 122.85C175.671 119.49 175.456 119.431 177.109 116.384C184.179 103.353 192.774 98.0436 201.385 83.6022C204.932 77.6532 205.062 73.8453 206.822 76.1344L206.822 76.1347Z" fill="#1A9AB3" fill-opacity="0.98"/>
<path fill-rule="evenodd" clip-rule="evenodd" d="M268.479 143.949C264.739 145.387 259.732 152.423 259.118 153.285C258.521 154.124 256.433 156.35 256.027 157.195C255.393 158.517 247.143 172.474 246.157 173.492C245.92 173.737 245.815 173.54 242.838 176.154C242.576 176.384 242.457 176.17 239.124 178.457C236.805 180.048 235.494 178.826 235.405 178.366C234.318 172.728 234.802 160.866 234.864 159.345C235.203 151.033 238.302 144.631 238.874 143.45C239.438 142.286 239.422 140.054 242.58 136.136C245.768 132.178 245.836 132.282 249.934 129.344C253.16 127.03 258.186 126.295 262.605 124.217C264.705 123.23 284.019 119.941 290.411 116.029C292.816 114.556 293.072 115.042 295.308 113.306C299.132 110.34 296.296 120.379 294.618 137.019C291.367 169.251 288.49 187.887 243.414 188.802L243.006 188.158C242.938 187.966 242.617 187.945 242.548 187.753C241.993 186.2 255.218 187.124 262.244 157.645C264.194 149.462 266.397 148.481 269.368 145.085C270.536 144.166 270.618 144.223 270.627 144.095C270.722 142.648 269.892 143.734 268.479 143.95V143.949Z" fill="#A7CC5B" fill-opacity="0.98"/>
<path fill-rule="evenodd" clip-rule="evenodd" d="M169.071 184.317C168.998 183.495 168.598 179.04 165.529 174.625C157.121 162.529 148.302 164.861 142.018 151.834C141.169 150.075 140.332 150.939 140.45 151.704C142.074 162.181 155.982 175.887 157.768 178.532C160.596 182.723 161.511 189.539 161.205 190.357C160.553 192.099 143.273 187.747 134.185 181.401C132.908 180.509 124.59 174.701 123.195 165.318C120.337 146.097 126.855 141.555 122.471 119.054C122.053 116.907 125.622 119.067 126.883 119.716C127.682 120.127 127.659 120.041 128.456 120.403C129.982 121.097 146.85 128.767 147.588 128.943C148.67 129.2 159.369 134.593 160.027 135.036C171.214 142.559 173.662 148.307 175.152 157.734C175.778 161.692 174.769 172.481 173.832 175.142C170.333 185.081 171.282 185.567 170.491 186.015C170.491 186.015 169.493 185.512 169.406 185.468C169.295 185.084 169.183 184.701 169.072 184.317L169.071 184.317Z" fill="#A7CC5A" fill-opacity="0.98"/>
<path fill-rule="evenodd" clip-rule="evenodd" d="M64.0512 103.272C67.843 112.579 76.902 119.256 83.58 124.811C87.4813 128.056 91.2961 136.814 88.2728 136.854C68.8387 137.108 58.8881 129.759 56.7869 128.207C54.9032 126.815 54.8004 126.927 53.5217 124.991C47.3912 115.709 47.6102 102.594 46.8424 98.3718C46.5482 96.7545 46.7976 96.7767 46.6974 95.1185C45.7785 79.9162 40.164 74.1076 43.621 75.1489C73.4566 84.1361 78.3691 82.0129 89.7181 90.9771C98.9849 98.2966 100.662 116.903 97.5732 130.526L96.9653 130.052C96.3689 129.501 96.334 129.558 96.0486 128.785C90.0957 112.675 73.7276 114.57 66.6351 104.778C65.5526 103.283 65.5905 102.264 64.0515 103.271L64.0512 103.272Z" fill="#6DC28C" fill-opacity="0.98"/>
<path fill-rule="evenodd" clip-rule="evenodd" d="M82.4227 170.557C81.841 170.071 81.8862 170.111 81.841 170.071C81.697 169.944 81.7664 169.942 81.6573 169.842C80.2209 168.529 79.4345 169.712 80.2194 170.73C87.7361 180.486 102.157 182.265 107.73 187.807C113.614 193.659 111.267 194.756 110.677 194.937C88.5942 201.699 77.2254 194.984 74.7487 193.521C73.0264 192.503 68.0745 189.578 62.3779 171.792C55.6087 150.657 52.7522 151.965 52.2685 150.113C51.7514 148.135 53.0769 149.021 55.0802 149.007C78.964 148.842 84.9796 146.12 99.197 150.019C112.121 153.562 116.714 172.717 117.504 178.421C118.55 185.976 118.872 185.908 118.704 186.543C118.119 188.757 115.84 184.196 114.71 182.977C104.119 171.55 93.0889 178.092 82.4227 170.557Z" fill="#3EA465" fill-opacity="0.98"/>
<path fill-rule="evenodd" clip-rule="evenodd" d="M235.352 376.509C236.014 376.144 236.108 376.19 236.14 375.461C236.262 372.628 248.263 368.815 254.612 376.757C260.23 383.784 256.17 390.588 259.107 388.855C294.16 368.17 323.472 392.312 326.618 415.214C330.914 446.488 303.81 459.358 288.022 456.275C261.193 451.037 258.694 422.555 270.77 410.969C286.736 395.652 306.004 409.035 307.17 419.005C310.106 444.107 283.109 444.766 278.466 431.47C274.254 419.412 287.885 413.392 290.987 416.127C292.947 417.855 287.89 416.818 285.42 418.051C274.551 423.476 281.811 438.034 291.875 437.303C309.239 436.043 308.509 409.805 290.236 407.673C269.16 405.214 260.852 433.037 276.988 445.385C299.891 462.911 329.727 436.767 318.445 409.808C306.236 380.633 268.673 384.078 254.381 404.357C250.252 410.217 250.438 411.205 249.781 412.368C249.39 413.06 249.242 412.458 249.119 412.479L248.123 412.525C245.845 403.79 245.593 402.508 245.419 401.627C246.572 400.585 246.63 400.633 246.663 400.503C246.824 399.86 246.844 399.89 247.355 399.494C247.878 399.089 252.04 394.227 252.439 393.761C257.174 388.228 255.581 378.365 248.948 375.32C243.162 372.663 240.059 374.766 236.353 377.126L235.912 377.587L235.352 376.509Z" fill="#7B5F4C"/>
<path fill-rule="evenodd" clip-rule="evenodd" d="M315.674 167.264L314.06 168.404C302.977 177.288 302.875 182.202 292.968 183.664C290.238 184.067 294.255 168.301 297.417 162.105C308.516 140.358 325.192 152.173 344.705 148.004C347.194 147.472 348.758 146.406 348.299 148.929C347.983 150.664 347.137 150.348 340.672 169.619C334.074 189.285 326.138 198.147 302.281 193.39C301.797 193.294 301.866 193.06 296.306 191.887C296.132 191.851 294.942 190.727 297.83 190.258C309.094 188.429 314.744 171.412 318.278 168.311C320.035 166.771 324.698 164.399 322.411 164.114C321.137 163.955 316.183 166.956 315.674 167.264L315.674 167.264Z" fill="#3EA365" fill-opacity="0.98"/>
<path fill-rule="evenodd" clip-rule="evenodd" d="M310.762 121.278C310.781 121.1 310.52 120.967 310.539 120.789C310.71 119.204 318.672 122.553 327.999 107.19C331.67 101.144 331.322 100.664 337.417 97.0429C338.146 96.6099 338.344 94.8909 336.011 95.8233C324.616 100.378 318.235 110.652 312.484 112.853C311.059 113.398 304.941 115.997 304.985 113.61C305.185 102.508 309.808 88.9677 319.07 85.2285C335.379 78.6441 346.447 84.4844 364.28 79.0519C366.139 78.4856 364.846 81.2917 364.763 81.471C362.13 87.1857 356.809 107.15 352.136 112.939C350.602 114.837 344.265 125.794 318.553 122.927C317.937 122.858 311.38 122.127 310.879 121.859L310.763 121.278H310.762Z" fill="#6DC28D" fill-opacity="0.98"/>
<path fill-rule="evenodd" clip-rule="evenodd" d="M246.47 443.956C247.793 443.536 247.78 443.486 247.899 443.503C248.203 443.544 248.116 443.671 248.873 445.68C253.136 456.998 258.174 460.448 260.515 462.899C274.221 477.254 271.837 482.875 275.548 482.162C295.772 478.275 303.008 485.166 305.497 485.136C307.013 485.117 305.663 481.694 305.656 479.428C305.614 467.359 321.425 462.309 327.555 469.85C335.272 479.345 326.856 489.006 318.504 486.659C316.763 486.17 316.797 484.511 318.555 484.853C319.438 485.024 326.762 486.449 328.411 479.447C331.258 467.354 312.225 463.994 308.704 476.149C305.174 488.331 319.943 492.26 322.09 497.94L322.625 498.65C320.25 502.037 320.284 502.027 317.594 505.129C314.543 503.876 313.971 499.376 303.991 493.867C269.663 474.918 232.05 511.448 254.143 542.679C254.258 542.842 254.648 543.394 253.307 545.026C250.263 545.917 250.282 545.945 250.017 546.02L249.416 545.532L248.872 545.468C248.829 545.44 239.775 536.414 241.631 519.754C242.559 514.49 242.97 500.764 258.802 489.419C260.798 487.988 262.211 488.258 261.124 486.084C250.905 465.655 237.128 461.41 237.197 459.833C237.205 459.633 237.448 459.49 237.457 459.289L236.859 458.71C238.586 456.455 242.329 452.708 246.47 443.955L246.47 443.956Z" fill="#7B5F4D"/>
<path fill-rule="evenodd" clip-rule="evenodd" d="M317.602 505.128C316.571 506.235 309.048 514.316 304.051 518.311L303.627 517.536L303.731 516.992C298.532 504.876 274.316 497.787 263.836 516.044C259.882 522.932 261.737 532.302 265.925 536.982C266.359 537.468 266.872 537.888 267.257 538.413C267.524 538.776 267.472 538.843 267.933 538.855C268.039 538.858 268.019 538.902 269.094 539.488C260.029 542.951 254.593 544.63 253.314 545.025C254.656 543.393 254.266 542.841 254.151 542.678C232.057 511.447 269.67 474.916 303.999 493.866C313.979 499.375 314.55 503.875 317.602 505.128L317.602 505.128Z" fill="#4F2F1D"/>
<path fill-rule="evenodd" clip-rule="evenodd" d="M288.514 59.4654C277.945 67.3061 277.441 75.6021 268.554 79.5111C263.449 81.7563 265.101 77.8548 265.162 76.0489C265.251 73.4246 265.979 51.8987 279.255 46.4054C288.745 42.4782 302.67 43.0898 308.335 40.3885C313.253 38.0433 313.574 39.1613 313.605 39.5866C313.639 40.0621 308.297 62.1536 307.823 64.113C301.975 88.2964 289.437 88.3104 270.665 87.9487C270.467 87.9448 268.211 86.8806 271.633 85.6653C282.874 81.6742 283.034 66.1611 290.637 60.0802C292.641 58.4776 290.852 57.7152 289.852 58.3433C289.717 58.4278 289.73 58.4295 288.514 59.465L288.514 59.4654Z" fill="#A7CC5A" fill-opacity="0.98"/>
<path fill-rule="evenodd" clip-rule="evenodd" d="M97.542 40.6406L98.0622 40.7618C113.603 50.0915 133.267 52.843 137.824 69.517C138.33 71.3699 140.217 78.2714 135.551 93.4189C135.491 93.6116 134.037 95.2968 133.626 91.7893C132.416 81.456 117.98 74.9444 114.753 70.7668C112.535 67.8954 111.483 65.0536 110.768 66.8519C110.395 67.7902 111.845 69.6356 113.86 73.8791C115.877 78.1277 125.721 86.3898 126.747 92.4164C127.27 95.4917 127.722 97.2378 124.711 96.4041C123.277 96.0068 112.291 92.9643 107.403 89.5646C88.2806 76.2644 100.585 63.9413 96.7531 41.7328C96.585 40.7577 97.4703 40.6915 97.542 40.6406Z" fill="#A7CC5A" fill-opacity="0.98"/>
<path fill-rule="evenodd" clip-rule="evenodd" d="M294.3 284.163C294.547 283.838 294.522 283.888 294.756 283.564C306.577 267.165 319.04 276.269 341.421 279.659C345.412 280.264 349.591 279.025 347.21 281.68C344.624 284.564 341.843 289.614 333.636 301.298C323.532 315.683 304.023 308.03 301.598 307.079C292.808 303.63 292.655 303.463 292.76 303.083C293.024 302.139 293.012 302.148 293.039 302.136C295.532 301.071 299.697 306.117 312.295 292.967C316.769 288.297 321.163 289.42 321.033 288.244C320.545 283.817 299.61 295.187 298.304 295.715C297.546 296.021 290.639 297.086 289.71 295.977C288.47 294.499 293.802 285.046 294.3 284.163L294.3 284.163Z" fill="#6DC28C" fill-opacity="0.97"/>
<path fill-rule="evenodd" clip-rule="evenodd" d="M164.628 41.7612C164.529 42.0196 163.904 42.0211 164.008 43.3905C164.092 44.4918 164.124 44.4562 164.035 45.5745C163.357 54.12 165.292 57.6236 165.538 58.6548C166.136 61.1623 170.356 64.4275 168.85 65.088C168.076 65.427 161.267 61.2867 160.637 60.9037C138.283 47.3114 143.662 35.6319 147.256 22.2069C147.558 21.0785 147.055 21.1589 147.079 21.0701C147.15 20.816 147.563 20.7832 147.668 20.5414C147.747 20.3616 147.483 20.1422 147.563 19.9628C147.67 19.7201 148.032 19.6675 148.157 19.4339C148.373 19.0319 150.856 8.17646 151.444 8.02083C152.687 7.69147 152.351 8.4888 153.256 9.4549C160.22 16.8897 160.662 16.3625 167.267 21.5609C175.032 27.6723 192.822 37.5564 177.451 61.8133C176.402 63.4685 175.079 61.951 174.948 61.8001C167.847 53.6572 171.767 50.9874 168.617 49.4087C168.778 49.1572 169.159 49.1041 169.32 48.8526C169.555 48.487 168.07 44.1262 168.016 43.8546C166.584 36.6629 162.993 33.0761 162.857 33.1121C161.145 33.5661 163.392 34.2451 164.628 41.7609L164.628 41.7612Z" fill="#6DC28C" fill-opacity="0.98"/>
<path fill-rule="evenodd" clip-rule="evenodd" d="M115.822 291.198C115.705 291.511 115.588 291.823 115.47 292.136C115.36 292.239 115.575 292.485 115.465 292.588C115.027 292.999 111.023 290.58 107.886 290.513C94.3916 290.222 94.1512 295.396 81.7475 294.158C78.8539 293.869 79.5974 295.181 79.7368 295.303C82.8516 298.022 105.928 295.734 107.301 296.14C113.353 297.929 116.048 298.229 113.556 300.036C112.081 301.106 104.676 307.679 92.624 310.044C76.2072 313.267 62.2907 294.595 50.7475 292.661C49.756 292.494 49.2087 290.928 51.785 290.469C57.8318 289.392 80.7575 273.109 95.3143 277.672C106.942 281.317 112.03 288.439 114.986 290.513C115.057 290.563 115.551 290.91 115.822 291.197L115.822 291.198Z" fill="#6DC28C" fill-opacity="0.97"/>
<path fill-rule="evenodd" clip-rule="evenodd" d="M11.1261 232.553C14.6389 232.015 14.534 231.705 20.2911 229.719C32.7815 225.408 32.3532 223.799 45.2563 222.271C58.5468 220.696 67.9574 238.443 69.6967 241.035C70.691 242.517 69.7178 243.462 68.3019 242.37C63.7822 238.884 63.4448 239.522 57.7913 239.036C55.8841 238.872 48.0273 239.842 46.851 240.274C40.0493 242.774 39.4563 239.327 37.1221 239.928C36.3694 240.122 35.8395 241.51 39.8592 242.58C42.5372 243.292 42.5654 242.97 45.3094 243.554C56.4706 245.928 58.0427 242.493 66.2507 248.3C68.8537 250.141 51.5606 260.116 39.2597 258.07C30.9894 256.695 26.477 248.022 15.8715 237.741C13.6271 235.566 10.571 234.977 10.6499 232.987C10.8086 232.842 10.9672 232.698 11.1259 232.553L11.1261 232.553Z" fill="#A7CC5A" fill-opacity="0.97"/>
<path fill-rule="evenodd" clip-rule="evenodd" d="M230.957 28.7205C236.821 22.2783 236.379 21.8592 243.204 16.4523C247.054 13.4016 252.935 5.10936 253.206 5.08716C254.264 5.00029 255.23 9.55749 258.234 16.6677C265.848 34.6949 267.625 42.6302 245.647 57.6018C244.545 58.353 243.462 59.4306 242.898 59.1445C240.565 57.9592 246.957 57.3492 246.22 45.0143C245.79 37.8353 244.027 37.8032 245.819 30.8622C246.964 26.4298 244.389 30.5973 244.333 30.7029C239.744 39.3388 242.596 48.0438 238.204 54.9508C236.746 57.2444 236.174 58.7904 234.577 56.5663C233.885 55.6022 228.663 48.3327 227.848 43.342C226.492 35.0409 229.098 32.037 230.513 29.3367C230.661 29.1313 230.809 28.9259 230.957 28.7207V28.7205Z" fill="#6DC28C" fill-opacity="0.98"/>
<path fill-rule="evenodd" clip-rule="evenodd" d="M367.44 251.085C364.13 251.838 359.229 257.199 346.382 250.13C345.107 249.428 336.766 243.32 336.499 242.635C335.737 240.676 340.775 243.16 344.64 242.399C356.818 240.001 355.302 234.999 365.377 234.499C366.673 234.435 366.943 232.889 364.827 232.825C354.727 232.52 343.407 239.137 338.206 235.996C335.534 234.383 345.789 224.89 350.266 222.186C356.65 218.329 361.612 218.809 362.631 218.908C369.277 219.551 380.681 228.514 388.765 230.691C390.534 231.167 391.709 230.644 391.077 232.34C391.062 232.381 372.597 247.7 372.332 247.916C371.971 248.21 371.216 248.826 367.44 251.085V251.085Z" fill="#A6CC5A" fill-opacity="0.98"/>
<path fill-rule="evenodd" clip-rule="evenodd" d="M210.582 9.34338C211.227 11.7653 208.958 13.4736 207.824 18.3334C207.754 18.9742 207.216 23.9502 211.895 25.2873C213.692 25.8005 217.229 24.7071 218.151 24.9C218.976 29.6272 224.011 37.1675 216.583 49.2612C214.175 53.181 203.907 64.1356 205.769 59.1665C208.943 50.6929 208.333 49.086 204.405 36.8012C202.739 31.5941 204.259 28.108 203.775 26.9865C203.307 25.8993 201.471 27.1242 201.498 36.3111C201.528 46.5439 204.008 46.7242 200.991 56.4593C200.932 56.6499 200.073 59.4206 198.761 57.5765C176.909 26.8714 194.425 22.8677 203.524 4.10978C205.094 0.87176 204.435 0.100516 205.834 0.0050267C206.839 -0.0637343 206.367 0.545629 207.756 3.53081C209.677 7.65884 210.337 8.8877 210.581 9.34338H210.582Z" fill="#26A6CC" fill-opacity="0.97"/>
<path fill-rule="evenodd" clip-rule="evenodd" d="M103.453 523.085C103.741 522.967 103.789 522.509 104.076 522.392C104.093 522.385 105.413 523.436 106.736 523.662C107.27 523.754 107.159 524.183 113.309 525.296C113.636 525.356 120.027 527.103 131.806 523.948C133.54 523.484 140.638 519.331 143.06 517.273C147.156 513.792 149.459 509.624 150.087 512.696C152.548 524.74 161.792 540.141 179.276 547.846C182.676 549.344 185.381 550.2 185.688 550.383C187.386 551.397 187.528 550.705 189.51 550.918C190.591 551.034 190.569 551.011 190.632 551.077C191.03 551.493 190.233 551.674 190.619 552.077L189.535 551.987C182.668 551.498 170.603 550.216 164.475 548.708C158.048 547.337 130.793 542.394 103.453 523.085L103.453 523.085Z" fill="#4C2C1C" fill-opacity="0.99"/>
<path fill-rule="evenodd" clip-rule="evenodd" d="M236.867 458.711L237.464 459.29C237.456 459.491 237.213 459.633 237.204 459.834C237.135 461.41 250.912 465.656 261.131 486.085C262.219 488.258 260.806 487.989 258.809 489.42C242.978 500.764 242.566 514.49 241.638 519.754C241.418 518.903 241.353 518.941 240.572 518.48C240.866 516.122 240.84 516.133 240.889 515.933C245.132 498.795 232.712 480.999 218.475 476.453C213.569 474.886 213.681 474.173 211.862 474.539L211.318 474.562L210.774 474.547C210.401 474.304 210.029 474.06 209.656 473.816L210.274 473.669C218.832 471.5 224.382 471.614 236.867 458.711H236.867Z" fill="#52321E"/>
<path fill-rule="evenodd" clip-rule="evenodd" d="M379.512 155.557C379.751 155.672 379.804 156.034 380.043 156.149C380.341 156.293 380.37 156.203 383.931 157.557C389.857 159.812 389.634 160.402 395.829 161.667C399.489 162.415 399.526 162.817 399.555 163.136C399.558 163.176 386.061 178.037 382.581 180.844C373.818 187.912 366.815 187.137 353.865 179.024C350.372 176.836 354.865 177.364 355.025 177.383C365.529 178.618 368.08 169.435 376.826 168.137C378.526 167.884 378.241 166.369 376.802 166.419C370.195 166.652 361.754 172.661 356.114 172.466C355.826 172.457 351.651 172.313 353.323 170.187C353.431 170.051 356.981 163.504 362.069 159.298C369.224 153.383 375.568 154.894 376.755 155.177C378.125 155.504 378.088 155.361 379.513 155.557L379.512 155.557Z" fill="#A6CC59" fill-opacity="0.97"/>
<path fill-rule="evenodd" clip-rule="evenodd" d="M34.3663 176.466C40.0985 177.438 40.5356 176.554 45.032 180.197C46.9437 181.746 35.5839 186.925 30.0477 187.184C25.4562 187.399 21.3062 188.681 15.4352 182.664C7.85255 174.892 9.25429 173.564 0.786548 166.805C-1.75761 164.774 1.65392 165.194 14.1965 161.335C14.7412 161.168 32.3203 152.399 41.7498 164.464C45.1275 168.785 49.3806 175.471 48.0338 175.736C45.8673 176.162 45.1497 169.908 28.4563 173.134C24.2481 173.947 20.8258 170.796 20.9717 172.918C21.0868 174.592 31.3479 176.35 34.3663 176.466Z" fill="#A6CB59" fill-opacity="0.97"/>
<path fill-rule="evenodd" clip-rule="evenodd" d="M301.336 520.509C297.29 523.601 297.332 523.595 293.158 526.517C292.784 525.829 292.675 525.933 292.42 525.161C289.531 516.38 279.366 515.985 276.819 518.271C274.447 520.4 280.46 518.654 281.53 518.742C288.901 519.344 289.374 525.576 291.295 527.81C278.842 535.271 275.188 536.682 271.295 538.452C271.186 538.317 269.995 536.827 269.933 536.767C256.621 524.049 269.938 505.773 285.895 508.832C296.109 510.79 298.755 518.733 301.336 520.509Z" fill="#4E2E1D" fill-opacity="0.99"/>
<path fill-rule="evenodd" clip-rule="evenodd" d="M240.569 518.484C241.35 518.945 241.415 518.908 241.635 519.758C239.78 536.418 248.834 545.445 248.876 545.473L249.421 545.536L250.022 546.025C249.363 546.183 243.393 547.617 241.798 548.018C238.201 548.694 238.21 548.69 238.02 548.731C235.752 549.223 235.813 549.268 233.624 549.613C222.389 551.457 214.772 551.769 213.492 551.837C208.29 552.295 208.339 552.228 203.148 552.323C203.428 552.209 203.413 551.712 203.693 551.598C204.2 551.391 204.786 551.52 205.326 551.434C206.072 551.316 206.804 551.121 207.547 550.985C209.809 550.568 222.893 548.155 232.229 536.236C237.394 529.643 238.807 526.814 240.568 518.485L240.569 518.484Z" fill="#4C2B1C" fill-opacity="0.98"/>
<path fill-rule="evenodd" clip-rule="evenodd" d="M194.385 230.698C186.93 218.931 190.014 216.598 199.818 206.635C204.661 201.714 204.421 197.767 206.331 200.771C218.355 219.669 221.694 223.499 213.072 232.409L212.283 231.744C216.43 226.53 207.353 216.378 205.591 213.064C204.106 210.27 203.655 213.977 201.314 216.306C194.758 222.827 194.699 223.104 194.38 227.95C194.265 229.694 195.609 229.411 195.24 230.111C195.079 230.416 194.546 230.392 194.385 230.698V230.698Z" fill="#D06521" fill-opacity="0.97"/>
<path fill-rule="evenodd" clip-rule="evenodd" d="M235.914 377.583L236.355 377.121C240.061 374.761 243.164 372.658 248.95 375.315C255.583 378.36 257.175 388.224 252.441 393.756C252.042 394.222 247.88 399.085 247.357 399.49C246.846 399.885 246.826 399.855 246.665 400.498C246.632 400.628 246.574 400.58 245.421 401.622C244.466 396.947 240.634 386.253 235.914 377.583Z" fill="#5D3D1E" fill-opacity="0.98"/>
<path fill-rule="evenodd" clip-rule="evenodd" d="M145.96 286.844C151.624 288.082 155.452 289.365 156.261 289.636C170.142 294.29 197.5 322.193 205.062 330.506C217.164 343.81 231.984 368.72 235.353 376.502L235.913 377.581C240.633 386.25 244.466 396.945 245.42 401.62C245.594 402.501 245.847 403.784 248.124 412.518C251.793 430.3 248.317 439.047 246.472 443.955C242.331 452.707 238.588 456.455 236.862 458.71C224.377 471.613 218.827 471.499 210.269 473.668C209.711 473.471 209.153 473.274 208.595 473.077C215.701 471.725 222.665 468.608 223.977 467.701C224.346 467.445 227.061 466.471 231.059 462.723C241.706 452.742 241.623 448.764 244.911 444.477C245.381 443.865 245.72 442.098 246.343 440.852C246.355 440.829 247.107 440.206 247.195 438.589C247.362 438.182 247.654 438.477 247.822 438.067C247.856 437.982 247.806 437.983 247.614 436.934C247.999 434.184 248.255 434.264 248.341 431.526C248.47 431.128 248.754 431.407 248.891 430.983C248.918 430.897 248.876 430.901 248.684 429.882C248.541 426.593 248.512 426.651 248.508 423.348C248.444 422.808 248.38 422.268 248.316 421.728C247.263 414.941 247.807 414.866 246.369 410.763C246.258 410.249 246.147 409.736 246.036 409.222C245.657 407.713 246.11 407.576 244.606 404.817C244.502 404.626 244.139 402.276 244.198 401.561C244.227 401.206 244.511 400.853 244.405 400.513C244.376 400.42 244.146 400.6 243.753 399.486C242.915 397.108 243.581 396.844 242.018 394.882C241.674 394.45 241.934 393.281 241.133 391.845C239.459 388.845 238.156 383.369 234.378 377.517C234.199 377.24 234.821 377.012 232.721 373.738C232.45 373.315 232.008 371.713 231.048 370.479C230.664 369.986 230.915 369.884 230.476 369.383C229.931 368.761 229.538 369.144 229.312 368.357C228.298 364.813 225.688 361.914 225.135 360.681C224.552 359.381 223.019 357.042 222.854 356.873C221.465 355.449 222.057 355.053 219.595 351.971C219.399 351.726 219.589 351.648 217.421 348.709C216.324 347.222 216.661 347.056 215.558 345.601C209.08 337.049 209.15 337.001 208.527 336.307C208.419 336.142 208.695 335.883 208.587 335.718C208.533 335.636 208.505 335.679 207.479 335.187C205.666 332.494 204.842 333.136 204.22 331.371C203.913 330.5 203.439 330.871 196.23 323.045C194.138 320.774 193.888 321.066 191.875 318.707C188.941 315.268 179.623 307.835 175.949 304.114C175.844 303.908 175.963 303.901 175.854 303.688C175.358 302.718 175.054 303.245 174.793 303.101C173.015 301.523 172.766 301.929 170.978 300.391C170.873 300.187 171.003 300.179 170.892 299.965C170.402 299.018 170.094 299.491 169.858 299.351C169.08 298.726 169.023 298.848 168.328 298.133C168.209 297.92 168.375 297.907 168.247 297.678C167.77 296.825 167.268 297.247 167.153 297.196C161.89 293.293 160.775 292.916 160.144 292.702C159.906 292.622 160.079 292.38 157.363 291.251C155.724 290.57 155.52 291.258 148.177 288.31C147.375 288.035 147.404 287.908 146.554 288.095C145.468 287.818 145.506 287.813 144.375 287.624C144.903 287.364 145.431 287.104 145.96 286.844L145.96 286.844Z" fill="#735639" fill-opacity="0.14"/>
<path fill-rule="evenodd" clip-rule="evenodd" d="M194.379 230.696C194.541 230.39 195.073 230.415 195.235 230.109C195.604 229.409 194.259 229.693 194.374 227.949C194.693 223.102 194.753 222.825 201.308 216.304C203.65 213.975 204.101 210.269 205.586 213.062C207.347 216.376 216.425 226.529 212.278 231.742L213.067 232.408C212.095 233.391 207.47 237.558 204.779 238.263L204.763 237.73L204.516 237.186L204.516 236.642C205.266 236.337 205.495 236.434 205.5 235.589C205.506 234.747 205.97 233.351 204.588 229.65C202.767 224.778 203.786 224.563 203.566 224.176C201.459 220.476 202.754 232.451 202.738 233.375C202.704 235.37 201.696 235.409 202.598 237.186L202.575 237.8C199.683 236.835 199.403 237.002 194.379 230.696Z" fill="#DABB1B" fill-opacity="0.99"/>
<path fill-rule="evenodd" clip-rule="evenodd" d="M304.046 518.315C303.141 519.046 302.236 519.777 301.332 520.509C298.752 518.733 296.105 510.79 285.892 508.832C269.934 505.773 256.617 524.049 269.929 536.767C269.991 536.827 271.182 538.317 271.291 538.452C270.557 538.799 269.823 539.145 269.089 539.491C268.014 538.906 268.033 538.861 267.928 538.859C267.467 538.846 267.519 538.78 267.252 538.416C266.867 537.891 266.354 537.471 265.919 536.986C261.731 532.306 259.877 522.936 263.831 516.047C274.311 497.79 298.527 504.88 303.726 516.995L303.622 517.54L304.046 518.314L304.046 518.315Z" fill="#7A5E4C"/>
<path fill-rule="evenodd" clip-rule="evenodd" d="M56.7548 442.414C57.0414 447.554 57.9879 481.259 92.1165 513.707C92.9748 514.512 98.7559 519.936 103.448 523.087C130.788 542.397 158.043 547.34 164.47 548.711C163.144 549.125 163.177 549.042 161.789 549.065C159.17 547.993 158.964 548.987 156.344 547.983C155.543 547.704 155.571 547.566 154.753 547.755L154.155 547.477C153.621 547.4 153.087 547.323 152.554 547.246C151.98 547.109 152.067 546.867 145.477 545.195C144.717 545.002 144.845 544.654 136.231 541.946C135.75 541.794 133.143 540.625 132.877 540.506C121.844 535.559 121.726 535.76 120.513 534.716C120.334 534.561 111.368 529.959 110.702 529.369C110.422 529.121 108.631 527.536 106.776 526.825C105.543 526.353 105.8 525.632 104.559 525.248C103.865 525.032 94.5479 517.916 91.7522 515.166C90.2746 513.712 90.1627 512.64 88.8513 512.069C87.8319 511.625 86.436 509.517 81.6945 504.527C81.5397 504.235 81.9131 504.252 81.7463 503.936C81.7014 503.852 81.6689 503.893 80.7026 503.353C80.2913 502.977 80.6245 502.755 76.373 497.891C76.0861 497.563 76.5702 497.269 73.2442 493.428C73.0127 493.161 72.8905 492.209 71.0624 490.159C70.1961 489.188 69.8392 487.819 69.7814 487.597C69.4227 486.222 69.3865 486.265 68.3956 485.279C68.2439 485.128 67.0743 482.952 66.9642 482.747C64.16 477.532 60.2398 467.697 59.9757 465.826C59.9316 465.512 59.4793 465.709 58.743 462.06C58.6169 461.436 58.2634 461.642 58.1625 460.984C57.9845 459.822 58.3098 459.79 57.7829 458.753C57.6823 458.555 58.1224 458.483 57.334 456.016C56.9804 454.91 57.3585 454.822 56.7563 453.83C56.5273 453.453 56.4252 450.774 56.5398 450.048C56.681 449.153 56.0779 449.332 55.9947 448.438C55.9663 448.132 55.9917 448.154 55.9531 444.603C56.1128 443.398 56.1449 443.432 56.7545 442.414H56.7548Z" fill="#694E3D" fill-opacity="0.16"/>
<path fill-rule="evenodd" clip-rule="evenodd" d="M210.578 9.34665C213.022 9.40011 212.177 6.65268 213.487 5.81979C214.644 5.08433 214.368 6.08449 214.73 7.39267C216.227 12.811 223.725 16.753 218.68 23.5716C218.108 23.1928 218.408 22.9359 217.846 22.5636C217.809 22.5393 217.775 22.5167 217.302 22.6591C216.48 22.9066 216.506 22.9208 215.66 22.8706C213.661 22.7518 213.754 24.3161 212.514 23.561C209.327 21.6206 209.758 21.1498 209.171 19.9684C208.318 18.2507 207.996 18.53 207.82 18.3369C208.954 13.4771 211.223 11.7688 210.578 9.34687V9.34665Z" fill="#7AD0F1" fill-opacity="0.96"/>
<path fill-rule="evenodd" clip-rule="evenodd" d="M342.638 409.18C342.869 410.076 345.114 415.397 345.012 416.85C344.877 418.797 345.498 418.697 345.45 420.624C345.421 421.78 345.237 421.799 345.8 422.814C345.785 423.56 345.905 423.514 346.29 424.455C347.239 435.699 345.738 440.966 345.574 442.409C345.282 441.867 344.991 441.325 344.7 440.783C345.684 425.421 345.393 425.397 342.25 410.913C342.53 410.048 342.554 410.081 342.638 409.18Z" fill="#63462B" fill-opacity="0.13"/>
<path fill-rule="evenodd" clip-rule="evenodd" d="M293.154 526.516C292.533 526.947 291.912 527.378 291.291 527.809C289.37 525.574 288.897 519.343 281.526 518.74C280.456 518.653 274.443 520.399 276.815 518.27C279.361 515.984 289.527 516.379 292.416 525.16C292.67 525.932 292.78 525.828 293.154 526.516V526.516Z" fill="#765947" fill-opacity="0.99"/>
<path fill-rule="evenodd" clip-rule="evenodd" d="M189.534 551.99L190.619 552.08C195.176 552.416 198.307 552.32 203.152 552.322C208.342 552.227 208.293 552.294 213.495 551.836C214.534 552.457 214.495 552.468 215.669 552.765C214.945 552.823 214.221 552.88 213.497 552.938C213.367 552.939 211.864 552.95 211.864 552.95C210.64 552.685 210.988 553.455 210.787 553.571C209.216 553.611 201.271 553.81 191.151 553.639C190.746 553.439 191.054 553.193 190.624 552.98C190.506 552.921 190.502 552.981 188.98 552.997C188.445 552.923 187.91 552.85 187.375 552.776C187.549 552.716 188.451 552.407 189.534 551.99Z" fill="#7C6151" fill-opacity="0.12"/>
<path fill-rule="evenodd" clip-rule="evenodd" d="M202.578 237.8L202.601 237.186C201.698 235.409 202.707 235.37 202.741 233.376C202.756 232.451 201.461 220.476 203.568 224.176C203.789 224.563 202.77 224.779 204.59 229.651C205.973 233.351 205.509 234.747 205.503 235.59C205.497 236.434 205.269 236.337 204.518 236.642L204.519 237.186L204.766 237.731L204.782 238.264C203.641 238.098 203.706 238.082 202.578 237.8Z" fill="#F0E51B" fill-opacity="0.98"/>
<path fill-rule="evenodd" clip-rule="evenodd" d="M164.47 548.711C170.599 550.219 182.664 551.501 189.53 551.989C188.447 552.406 187.545 552.716 187.371 552.776C183.773 552.714 183.807 552.942 181.358 552.48C180.823 552.391 180.288 552.301 179.752 552.212C178.306 552.055 176.86 551.897 175.414 551.74C175.042 551.615 175.241 551.39 174.844 551.257C174.758 551.228 174.764 551.282 173.758 551.597C172.099 551.452 172.137 551.456 170.488 551.281C169.473 550.817 169.523 550.73 168.864 550.683C167.019 550.404 165.097 550.53 164.618 550.025C164.454 549.852 164.28 549.669 161.789 549.065C163.177 549.041 163.144 549.125 164.47 548.711H164.47Z" fill="#6F5446" fill-opacity="0.14"/>
<path fill-rule="evenodd" clip-rule="evenodd" d="M207.819 18.3359C207.994 18.5293 208.317 18.2497 209.17 19.9674C209.756 21.1489 209.325 21.6194 212.513 23.56C213.753 24.3151 213.66 22.7509 215.659 22.8696C216.504 22.9199 216.479 22.9054 217.3 22.6582C217.774 22.5157 217.808 22.5383 217.845 22.5627C218.407 22.935 218.107 23.1919 218.678 23.5706C218.31 24.1998 218.338 24.1759 218.146 24.9025C217.224 24.7094 213.687 25.8031 211.891 25.2899C207.211 23.9528 207.75 18.9768 207.819 18.3359Z" fill="#64C3E6" fill-opacity="0.92"/>
<path fill-rule="evenodd" clip-rule="evenodd" d="M233.624 549.609C234.439 550.149 234.402 550.121 235.258 550.539C234.716 550.604 234.174 550.669 233.633 550.735C232.62 550.719 232.62 550.684 232.539 550.718C232.146 550.882 232.359 551.093 231.991 551.246C231.773 551.27 230.382 551.425 229.266 551.583C228.42 551.372 228.455 551.446 227.611 551.663C225.226 552.314 225.248 552.131 222.734 552.202C222.196 552.276 221.658 552.349 221.12 552.422C218.746 552.925 218.75 552.688 215.666 552.762C214.492 552.466 214.531 552.455 213.492 551.833C214.772 551.766 222.389 551.454 233.624 549.609Z" fill="#664A3D" fill-opacity="0.13"/>
<path fill-rule="evenodd" clip-rule="evenodd" d="M344.707 440.781C344.998 441.323 345.29 441.865 345.581 442.407C345.448 447.973 344.581 447.818 344.438 450.022C344.232 453.185 343.202 452.896 342.636 456.044C342.56 454.888 342.561 454.936 342.172 453.902C343.802 447.408 343.819 447.443 344.707 440.781Z" fill="#6D513E" fill-opacity="0.13"/>
<path fill-rule="evenodd" clip-rule="evenodd" d="M197.153 473.102C201.791 473.162 201.767 472.904 206.384 473.234C207.537 473.268 207.487 473.33 208.593 473.083C209.151 473.28 209.709 473.477 210.267 473.674L209.649 473.821C204.713 474.168 204.785 474.478 199.887 474.425C197.168 474.15 197.201 474.167 194.453 473.868C196.968 473.242 196.933 473.149 197.153 473.102Z" fill="#785B46" fill-opacity="0.14"/>
<path fill-rule="evenodd" clip-rule="evenodd" d="M55.9719 430.977C56.2258 431.903 56.259 431.857 56.7813 432.623C56.5987 437.524 56.5983 437.496 56.76 442.414C56.1502 443.432 56.1183 443.398 55.9586 444.603C55.5887 442.439 55.6501 442.474 55.4766 440.251L55.4787 437.518L55.4893 435.333C55.6467 432.95 55.4882 432.984 55.9719 430.977Z" fill="#684A30" fill-opacity="0.2"/>
<path fill-rule="evenodd" clip-rule="evenodd" d="M56.3805 424.461C56.6974 425.006 57.0142 425.551 57.3311 426.097C56.9496 429.373 57.002 429.329 56.7804 432.624C56.2581 431.858 56.2247 431.903 55.971 430.977C55.8621 427.695 55.6351 427.689 56.3805 424.461Z" fill="#735D44" fill-opacity="0.14"/>
<path fill-rule="evenodd" clip-rule="evenodd" d="M153.658 417.922C154.643 419.777 154.785 425.128 153.641 427.169C153.505 422.535 153.521 422.571 153.658 417.922Z" fill="#66493A" fill-opacity="0.3"/>
<path fill-rule="evenodd" clip-rule="evenodd" d="M238.021 548.727C239.848 549.306 239.876 549.006 240.696 549.061C237.946 549.739 238.087 550.179 235.259 550.538C234.403 550.12 234.44 550.148 233.625 549.609C235.814 549.264 235.753 549.219 238.021 548.727Z" fill="#755C4F" fill-opacity="0.13"/>
<path fill-rule="evenodd" clip-rule="evenodd" d="M193.366 472.781C193.668 472.819 193.623 472.789 197.155 473.099C196.936 473.147 196.97 473.24 194.455 473.866L191.211 473.275C192.262 472.823 192.244 472.904 193.366 472.781Z" fill="#5A4130" fill-opacity="0.23"/>
<path fill-rule="evenodd" clip-rule="evenodd" d="M241.801 548.016C242.164 548.199 242.528 548.382 242.891 548.565C241.776 548.878 241.824 548.91 240.699 549.063C239.878 549.008 239.85 549.308 238.023 548.728C238.213 548.688 238.205 548.691 241.801 548.016Z" fill="#563A2D" fill-opacity="0.25"/>
<path fill-rule="evenodd" clip-rule="evenodd" d="M268.477 143.954C269.889 143.738 270.72 142.651 270.625 144.098C270.616 144.226 270.534 144.17 269.365 145.089C269.353 145.053 269.66 144.511 269.023 144.087C268.762 143.913 268.735 144.126 268.477 143.954Z" fill="#ADCD6A" fill-opacity="0.74"/>
<path fill-rule="evenodd" clip-rule="evenodd" d="M193.406 329.672C193.576 329.851 195.434 331.817 195.528 331.907C193.839 331.49 193.715 331.367 193.406 329.672Z" fill="#574422" fill-opacity="0.06"/>
<path fill-rule="evenodd" clip-rule="evenodd" d="M304.984 350.367C306.101 351.445 305.955 351.51 307.132 352.577C306.848 352.465 306.689 352.869 305.963 352.115C305.253 351.378 305.406 351.322 304.984 350.367Z" fill="#583C1F" fill-opacity="0.08"/>
<path fill-rule="evenodd" clip-rule="evenodd" d="M344.68 79.7646L347.944 79.7109C346.62 80.2451 346.65 80.3973 345.236 80.1496C345.014 80.1106 344.902 79.8036 344.68 79.7646Z" fill="#23B12B" fill-opacity="0.01"/>
<path fill-rule="evenodd" clip-rule="evenodd" d="M169.066 184.32C169.178 184.704 169.289 185.087 169.401 185.471C169.268 185.57 169.599 185.864 169.467 185.962C168.006 187.05 169.017 184.446 169.066 184.32H169.066Z" fill="#AEBE65" fill-opacity="0.19"/>
<path fill-rule="evenodd" clip-rule="evenodd" d="M213.492 552.933C212.588 553.145 211.685 553.356 210.781 553.567C210.983 553.451 210.635 552.681 211.859 552.946C211.859 552.946 213.361 552.934 213.492 552.934V552.933Z" fill="#463B27" fill-opacity="0.04"/>
<path fill-rule="evenodd" clip-rule="evenodd" d="M310.405 513.742C310.151 514.745 310.084 514.69 309.32 515.383C309.705 514.427 309.689 514.463 310.405 513.742Z" fill="#552F25" fill-opacity="0.05"/>
<path fill-rule="evenodd" clip-rule="evenodd" d="M70.8793 110.257L70.2697 110.904C70.1651 110.634 69.6743 110.663 69.5698 110.393C69.3101 109.725 70.7795 110.223 70.8793 110.257Z" fill="#298979" fill-opacity="0.01"/>
<path fill-rule="evenodd" clip-rule="evenodd" d="M124.528 218.102C124.588 218.44 124.565 218.43 124.582 220.331C124.219 219.237 124.205 219.248 124.528 218.102Z" fill="#63491A" fill-opacity="0.05"/>
<path fill-rule="evenodd" clip-rule="evenodd" d="M61.5234 174.602C61.6972 174.834 61.673 174.819 62.5499 176.319C61.7534 175.616 61.5737 175.695 61.5234 174.602Z" fill="#118326" fill-opacity="0.01"/>
<path fill-rule="evenodd" clip-rule="evenodd" d="M188.977 552.995C190.499 552.98 190.502 552.92 190.62 552.978C191.05 553.191 190.743 553.438 191.148 553.638C190.02 553.375 190.062 553.358 188.977 552.995Z" fill="#55362F" fill-opacity="0.04"/>
<path fill-rule="evenodd" clip-rule="evenodd" d="M146.076 159.242C146.382 159.685 146.687 160.128 146.993 160.571C145.425 160.121 146.104 159.312 146.076 159.242Z" fill="#96D136" fill-opacity="0.04"/>
<path fill-rule="evenodd" clip-rule="evenodd" d="M126.393 326.469C125.921 327.524 125.974 327.565 125.884 327.606C125.537 327.764 125.585 327.288 125.227 327.451C125.321 327.374 125.817 326.972 126.393 326.469Z" fill="#593922" fill-opacity="0.06"/>
<path fill-rule="evenodd" clip-rule="evenodd" d="M87.9497 175.303L87.5497 175.795C87.2725 174.859 86.2074 174.313 87.1651 174.496C87.5335 174.567 87.5813 175.232 87.9497 175.303V175.303Z" fill="#188F1E" fill-opacity="0.01"/>
<path fill-rule="evenodd" clip-rule="evenodd" d="M112.239 337.898C111.753 338.931 111.804 338.971 111.715 339.012C111.389 339.164 111.408 338.756 111.086 338.906C111.662 338.403 112.147 337.979 112.239 337.898Z" fill="#564122" fill-opacity="0.08"/>
<path fill-rule="evenodd" clip-rule="evenodd" d="M87.7343 360.75C87.7264 360.764 87.9348 361.482 87.15 361.8C86.9829 361.868 86.7764 361.734 86.6094 361.802C87.1752 361.265 87.1439 361.294 87.7343 360.75Z" fill="#533B21" fill-opacity="0.06"/>
<path fill-rule="evenodd" clip-rule="evenodd" d="M83.853 365.047C83.7924 365.179 84.2767 365.693 83.3395 366.164C83.1166 366.276 83.1104 366.117 82.875 366.235C83.3861 365.607 83.3604 365.638 83.853 365.047Z" fill="#543928" fill-opacity="0.05"/>
<path fill-rule="evenodd" clip-rule="evenodd" d="M155.213 303.562C154.737 304.604 154.786 304.641 154.699 304.687C154.395 304.845 154.394 304.461 154.094 304.618C154.66 304.08 154.625 304.113 155.213 303.562Z" fill="#5E411D" fill-opacity="0.06"/>
<path fill-rule="evenodd" clip-rule="evenodd" d="M208.6 473.079C207.494 473.327 207.544 473.265 206.391 473.231C207.516 472.955 207.476 472.992 208.6 473.079Z" fill="#594D35" fill-opacity="0.1"/>
<path fill-rule="evenodd" clip-rule="evenodd" d="M115.953 276.556C116.16 276.656 116.581 275.935 117.021 277.075C117.118 277.325 116.967 277.319 117.058 277.556C116.977 277.468 116.539 276.998 115.953 276.556Z" fill="#562A13" fill-opacity="0.04"/>
<path fill-rule="evenodd" clip-rule="evenodd" d="M55.477 437.516L55.4749 440.249C55.1925 438.858 55.2867 438.892 55.477 437.516Z" fill="#48241A" fill-opacity="0.05"/>
<path fill-rule="evenodd" clip-rule="evenodd" d="M284.19 65.8339C284.337 65.9447 284.583 65.6072 284.73 65.718C285.223 66.0894 284.792 66.1374 284.047 67.2852L284.171 66.7912C284.178 66.4722 284.184 66.1532 284.19 65.8339Z" fill="#55CB38" fill-opacity="0.03"/>
<path fill-rule="evenodd" clip-rule="evenodd" d="M247.82 304.11C248.38 304.635 248.862 305.053 248.954 305.133C248.623 304.949 248.643 305.429 248.322 305.249C248.235 305.201 248.285 305.165 247.82 304.11Z" fill="#543B28" fill-opacity="0.06"/>
<path fill-rule="evenodd" clip-rule="evenodd" d="M146.023 223C146.586 223.515 147.082 223.895 147.178 223.969C146.824 223.785 146.877 224.31 146.533 224.132C146.444 224.086 146.495 224.048 146.023 223Z" fill="#56451F" fill-opacity="0.06"/>
<path fill-rule="evenodd" clip-rule="evenodd" d="M232.071 291.547C232.615 292.089 233.092 292.503 233.183 292.583C232.849 292.393 232.875 292.893 232.549 292.708C232.549 292.708 232.109 291.64 232.071 291.547Z" fill="#53461A" fill-opacity="0.05"/>
<path fill-rule="evenodd" clip-rule="evenodd" d="M273.906 324.305C274.472 324.824 274.977 325.207 275.074 325.28C274.734 325.108 274.768 325.581 274.437 325.415C274.437 325.415 273.949 324.394 273.906 324.305Z" fill="#4F411A" fill-opacity="0.06"/>
<path fill-rule="evenodd" clip-rule="evenodd" d="M118.786 332.477C118.287 333.485 118.329 333.514 118.247 333.566C118.07 333.677 117.802 333.367 117.625 333.478C118.19 332.912 118.166 332.936 118.786 332.477Z" fill="#584722" fill-opacity="0.06"/>
<path fill-rule="evenodd" clip-rule="evenodd" d="M246.143 547.993C245.601 548.181 245.058 548.368 244.516 548.556C244.791 548.434 244.736 547.922 245.012 547.8C245.096 547.763 245.095 547.815 246.143 547.993Z" fill="#47271F" fill-opacity="0.09"/>
<path fill-rule="evenodd" clip-rule="evenodd" d="M174.797 303.103C175.057 303.247 175.361 302.719 175.858 303.69C175.966 303.903 175.847 303.909 175.953 304.116C175.35 303.61 175.385 303.641 174.797 303.103Z" fill="#554821" fill-opacity="0.07"/>
<path fill-rule="evenodd" clip-rule="evenodd" d="M292.495 272.101C291.943 272.67 291.971 272.641 291.414 273.197C291.523 272.96 291.34 272.96 291.457 272.705C291.844 271.866 292.406 272.153 292.495 272.101Z" fill="#564323" fill-opacity="0.05"/>
<path fill-rule="evenodd" clip-rule="evenodd" d="M85.1018 212.602C85.6562 213.151 85.6264 213.121 86.186 213.694C85.8959 213.505 85.8814 213.951 85.5848 213.758C85.5848 213.758 85.1404 212.694 85.1016 212.602H85.1018Z" fill="#584521" fill-opacity="0.06"/>
<path fill-rule="evenodd" clip-rule="evenodd" d="M255.383 310.164C255.964 310.667 256.453 311.083 256.546 311.163C256.235 311 256.252 311.364 255.963 311.213C255.963 311.213 255.429 310.248 255.383 310.164Z" fill="#5C3526" fill-opacity="0.07"/>
<path fill-rule="evenodd" clip-rule="evenodd" d="M183.609 243.102C184.185 243.638 184.159 243.612 184.716 244.178C184.55 244.066 184.283 244.348 184.116 244.236C184.116 244.236 183.65 243.192 183.609 243.102Z" fill="#5B4623" fill-opacity="0.06"/>
<path fill-rule="evenodd" clip-rule="evenodd" d="M80.7031 503.352C81.6694 503.892 81.702 503.85 81.7468 503.935C81.9137 504.25 81.5403 504.233 81.6951 504.525C81.6158 504.431 81.1991 503.937 80.7031 503.352Z" fill="#4A2E27" fill-opacity="0.06"/>
<path fill-rule="evenodd" clip-rule="evenodd" d="M217.773 274.332C218.114 274.525 218.091 273.989 218.411 274.171C218.469 274.204 218.479 274.21 218.791 274.91C218.848 275.037 218.862 275.181 218.918 275.308C218.36 274.786 217.868 274.406 217.773 274.332Z" fill="#513518" fill-opacity="0.04"/>
<path fill-rule="evenodd" clip-rule="evenodd" d="M209.069 257.242C208.723 257.628 208.377 258.014 208.031 258.4C208.528 257.77 208.491 257.813 209.069 257.242Z" fill="#663A16" fill-opacity="0.03"/>
<path fill-rule="evenodd" clip-rule="evenodd" d="M207.484 335.188C208.511 335.679 208.539 335.636 208.593 335.719C208.701 335.884 208.424 336.143 208.532 336.308C207.991 335.745 208.018 335.774 207.484 335.188Z" fill="#503A20" fill-opacity="0.05"/>
<path fill-rule="evenodd" clip-rule="evenodd" d="M167.82 458.68C168.398 459.194 168.869 459.605 168.96 459.686C168.669 459.516 168.666 459.932 168.374 459.761C168.29 459.712 168.333 459.681 167.82 458.68Z" fill="#51442E" fill-opacity="0.05"/>
<path fill-rule="evenodd" clip-rule="evenodd" d="M252.719 307.922C253.272 308.451 253.783 308.805 253.882 308.873C253.551 308.702 253.593 309.194 253.253 309.018C253.166 308.973 253.213 308.937 252.719 307.922Z" fill="#4E3620" fill-opacity="0.05"/>
<path fill-rule="evenodd" clip-rule="evenodd" d="M286.479 276.988C285.94 277.516 285.477 277.976 285.391 278.063C285.431 277.972 285.898 276.933 285.898 276.933C286.058 276.822 286.319 277.098 286.479 276.988Z" fill="#4A4219" fill-opacity="0.04"/>
<path fill-rule="evenodd" clip-rule="evenodd" d="M124.259 328.156C123.689 329.084 123.725 329.111 123.643 329.159C123.343 329.334 123.348 328.963 123.07 329.125C123.656 328.602 123.609 328.639 124.259 328.156Z" fill="#553C20" fill-opacity="0.06"/>
<path fill-rule="evenodd" clip-rule="evenodd" d="M323.547 371.023C324.057 371.611 324.031 371.576 324.478 372.225C324.167 371.825 323.857 371.424 323.547 371.023Z" fill="#4C3A20" fill-opacity="0.04"/>
<path fill-rule="evenodd" clip-rule="evenodd" d="M167.156 297.201C167.272 297.252 167.774 296.83 168.251 297.683C168.379 297.911 168.212 297.925 168.332 298.138C168.247 298.053 167.785 297.585 167.156 297.201Z" fill="#4A2710" fill-opacity="0.05"/>
<path fill-rule="evenodd" clip-rule="evenodd" d="M256.516 287.918C257.046 287.821 257.577 287.723 258.108 287.625C257.577 287.723 257.047 287.821 256.516 287.918Z" fill="#524724" fill-opacity="0.09"/>
<path fill-rule="evenodd" clip-rule="evenodd" d="M169.859 299.352C170.096 299.492 170.404 299.018 170.894 299.966C171.005 300.179 170.874 300.188 170.98 300.391C170.892 300.306 170.429 299.854 169.859 299.352Z" fill="#463B1D" fill-opacity="0.04"/>
<path fill-rule="evenodd" clip-rule="evenodd" d="M316.401 241.563C315.856 242.1 315.498 242.603 315.428 242.7C315.53 242.519 315.199 242.271 315.301 242.09C315.349 242.005 315.382 242.052 316.401 241.563Z" fill="#4B3816" fill-opacity="0.05"/>
<path fill-rule="evenodd" clip-rule="evenodd" d="M262.487 259.508C262.356 259.56 262.523 260.129 260.844 259.922C261.392 259.784 261.94 259.646 262.487 259.508Z" fill="#672D17" fill-opacity="0.06"/>
<path fill-rule="evenodd" clip-rule="evenodd" d="M80.7266 208.813C80.8098 208.9 81.2579 209.367 81.8466 209.816C81.5498 209.651 81.5565 210.07 81.2579 209.904C81.173 209.857 81.2185 209.824 80.7266 208.813Z" fill="#494018" fill-opacity="0.05"/>
<path fill-rule="evenodd" clip-rule="evenodd" d="M248.686 429.883C248.878 430.902 248.921 430.899 248.893 430.984C248.756 431.408 248.472 431.129 248.344 431.528C248.458 430.979 248.572 430.431 248.686 429.883Z" fill="#4B4025" fill-opacity="0.06"/>
<path fill-rule="evenodd" clip-rule="evenodd" d="M248.32 421.734C248.384 422.274 248.448 422.814 248.513 423.354C248.449 422.814 248.385 422.274 248.32 421.734Z" fill="#52271E" fill-opacity="0.06"/>
<path fill-rule="evenodd" clip-rule="evenodd" d="M247.614 436.938C247.806 437.986 247.856 437.985 247.821 438.07C247.654 438.481 247.362 438.185 247.195 438.592C247.335 438.04 247.475 437.489 247.614 436.938Z" fill="#433527" fill-opacity="0.08"/>
<path fill-rule="evenodd" clip-rule="evenodd" d="M57.1737 419.547C57.3549 420.582 57.4047 420.581 57.3694 420.664C57.1952 421.078 56.907 420.785 56.7344 421.194C56.7639 421.061 56.7762 421.106 57.1737 419.547Z" fill="#362616" fill-opacity="0.05"/>
<path fill-rule="evenodd" clip-rule="evenodd" d="M224.32 279.195C224.447 279.259 224.896 278.928 225.381 279.729C225.512 279.946 225.364 279.965 225.487 280.167C224.924 279.637 224.418 279.267 224.32 279.195Z" fill="#443511" fill-opacity="0.05"/>
<path fill-rule="evenodd" clip-rule="evenodd" d="M55.4871 435.336L55.4765 437.521C55.2418 436.395 55.2497 436.432 55.4871 435.336Z" fill="#4A241B" fill-opacity="0.05"/>
<path fill-rule="evenodd" clip-rule="evenodd" d="M129.628 323.711C129.115 324.701 129.157 324.73 129.074 324.78C128.794 324.952 128.778 324.559 128.5 324.729C128.595 324.653 129.09 324.26 129.628 323.711Z" fill="#48301C" fill-opacity="0.04"/>
<path fill-rule="evenodd" clip-rule="evenodd" d="M268.485 236.102C267.999 236.698 268.027 236.667 267.477 237.256C267.651 236.983 267.322 236.967 267.484 236.712C267.534 236.633 267.558 236.667 268.485 236.102Z" fill="#513F1C" fill-opacity="0.05"/>
<path fill-rule="evenodd" clip-rule="evenodd" d="M233.634 550.734C233.087 550.904 232.539 551.075 231.992 551.245C232.36 551.092 232.147 550.881 232.541 550.717C232.621 550.684 232.622 550.719 233.634 550.734Z" fill="#3E1A12" fill-opacity="0.04"/>
<path fill-rule="evenodd" clip-rule="evenodd" d="M96.4453 255.703C97.3633 256.268 97.3938 256.231 97.4367 256.313C97.5852 256.599 97.2129 256.574 97.3737 256.884C97.306 256.784 96.9564 256.271 96.4453 255.703Z" fill="#48391B" fill-opacity="0.05"/>
<path fill-rule="evenodd" clip-rule="evenodd" d="M173.758 551.597C174.763 551.282 174.757 551.228 174.844 551.257C175.241 551.39 175.042 551.615 175.414 551.74C174.862 551.692 174.31 551.645 173.758 551.597Z" fill="#2F231B" fill-opacity="0.05"/>
<path fill-rule="evenodd" clip-rule="evenodd" d="M168.867 550.68C169.526 550.727 169.476 550.813 170.491 551.277C169.95 551.078 169.408 550.879 168.867 550.68Z" fill="#3F1912" fill-opacity="0.04"/>
<path fill-rule="evenodd" clip-rule="evenodd" d="M87.1797 242.641C88.0589 243.215 88.0846 243.181 88.1292 243.261C88.2232 243.427 87.9798 243.665 88.0738 243.832C87.6526 243.231 87.2541 242.734 87.1797 242.641Z" fill="#4A3A1A" fill-opacity="0.04"/>
<path fill-rule="evenodd" clip-rule="evenodd" d="M323.493 208.938C322.888 209.78 322.918 209.804 322.84 209.847C322.574 209.997 322.574 209.668 322.289 209.828C322.895 209.396 323.398 209.011 323.493 208.938Z" fill="#483E20" fill-opacity="0.06"/>
<path fill-rule="evenodd" clip-rule="evenodd" d="M154.758 547.751C155.575 547.562 155.548 547.7 156.349 547.979L154.758 547.751Z" fill="#302520" fill-opacity="0.08"/>
<path fill-rule="evenodd" clip-rule="evenodd" d="M151.388 258.234C151.022 258.417 150.656 258.599 150.289 258.782C150.797 258.378 150.772 258.407 151.388 258.234Z" fill="#5B4314" fill-opacity="0.02"/>
<path fill-rule="evenodd" clip-rule="evenodd" d="M345.806 422.812C345.969 423.36 346.133 423.907 346.297 424.454C345.911 423.513 345.791 423.559 345.806 422.812Z" fill="#32200F" fill-opacity="0.04"/>
<path fill-rule="evenodd" clip-rule="evenodd" d="M254.32 259.492L255.908 259.739C255.072 259.896 255.098 259.773 254.32 259.492Z" fill="#622A17" fill-opacity="0.05"/>
<path fill-rule="evenodd" clip-rule="evenodd" d="M82.8359 235.555C83.5067 235.996 83.4205 236.037 83.7934 236.706C83.3837 236.097 82.9211 235.639 82.8359 235.555Z" fill="#47290F" fill-opacity="0.04"/>
<path fill-rule="evenodd" clip-rule="evenodd" d="M146.555 288.097C147.404 287.909 147.375 288.036 148.177 288.311C147.637 288.24 147.096 288.168 146.555 288.097Z" fill="#342917" fill-opacity="0.09"/>
<path fill-rule="evenodd" clip-rule="evenodd" d="M196.219 259.992C196.695 260.601 196.672 260.572 197.114 261.166C196.481 260.696 196.615 260.627 196.219 259.992Z" fill="#4A3414" fill-opacity="0.04"/>
<path fill-rule="evenodd" clip-rule="evenodd" d="M109.094 186.922C109.691 187.164 109.648 187.161 110.096 187.618C109.873 187.562 109.937 187.5 109.721 187.446C109.288 187.337 109.427 187.2 109.094 186.922Z" fill="#149D15" fill-opacity="0.01"/>
<path fill-rule="evenodd" clip-rule="evenodd" d="M227.609 551.667C228.454 551.449 228.419 551.376 229.265 551.586L227.609 551.667Z" fill="#2B201A" fill-opacity="0.04"/>
<path fill-rule="evenodd" clip-rule="evenodd" d="M267.383 286.195C266.831 286.325 266.279 286.455 265.727 286.584C266.758 286.278 266.719 286.211 267.383 286.195Z" fill="#47240A" fill-opacity="0.05"/>
<path fill-rule="evenodd" clip-rule="evenodd" d="M96.9688 130.055L97.5766 130.529C97.4773 130.493 97.5272 130.845 97.4279 130.809C97.4279 130.809 97.0056 130.115 96.9688 130.055Z" fill="#51A36C" fill-opacity="0.31"/>
</svg>
